<svg xmlns="http://www.w3.org/2000/svg" width="233" height="467" viewBox="0 0 233 467" fill="none"><path d="M144.818 0H128.727V16.0909H144.818V0Z" fill="#BF1422"></path><path d="M160.909 0H144.818V16.0909H160.909V0Z" fill="#BF1422"></path><path d="M193.091 0H177V16.0909H193.091V0Z" fill="#BF1422"></path><path d="M209.182 0H193.091V16.0909H209.182V0Z" fill="#BF1422"></path><path d="M144.818 16.0908H128.727V32.1817H144.818V16.0908Z" fill="#BF1422"></path><path d="M160.909 16.0908H144.818V32.1817H160.909V16.0908Z" fill="#BF1422"></path><path d="M177 16.0908H160.909V32.1817H177V16.0908Z" fill="#BF1422"></path><path d="M209.182 16.0908H193.091V32.1817H209.182V16.0908Z" fill="#BF1422"></path><path d="M241.364 16.0908H225.273V32.1817H241.364V16.0908Z" fill="#BF1422"></path><path d="M160.909 32.1819H144.818V48.2728H160.909V32.1819Z" fill="#BF1422"></path><path d="M177 32.1819H160.909V48.2728H177V32.1819Z" fill="#BF1422"></path><path d="M193.091 32.1819H177V48.2728H193.091V32.1819Z" fill="#BF1422"></path><path d="M209.182 32.1819H193.091V48.2728H209.182V32.1819Z" fill="#BF1422"></path><path d="M225.273 32.1819H209.182V48.2728H225.273V32.1819Z" fill="#BF1422"></path><path d="M241.364 32.1819H225.273V48.2728H241.364V32.1819Z" fill="#BF1422"></path><path d="M144.818 48.2727H128.727V64.3636H144.818V48.2727Z" fill="#BF1422"></path><path d="M177 48.2727H160.909V64.3636H177V48.2727Z" fill="#BF1422"></path><path d="M193.091 48.2727H177V64.3636H193.091V48.2727Z" fill="#BF1422"></path><path d="M209.182 48.2727H193.091V64.3636H209.182V48.2727Z" fill="#BF1422"></path><path d="M160.909 64.3635H144.818V80.4544H160.909V64.3635Z" fill="#BF1422"></path><path d="M177 64.3635H160.909V80.4544H177V64.3635Z" fill="#BF1422"></path><path d="M225.273 64.3635H209.182V80.4544H225.273V64.3635Z" fill="#BF1422"></path><path d="M177 80.4546H160.909V96.5455H177V80.4546Z" fill="#BF1422"></path><path d="M193.091 80.4546H177V96.5455H193.091V80.4546Z" fill="#BF1422"></path><path d="M209.182 80.4546H193.091V96.5455H209.182V80.4546Z" fill="#BF1422"></path><path d="M241.364 80.4546H225.273V96.5455H241.364V80.4546Z" fill="#BF1422"></path><path d="M144.818 96.5454H128.727V112.636H144.818V96.5454Z" fill="#BF1422"></path><path d="M177 96.5454H160.909V112.636H177V96.5454Z" fill="#BF1422"></path><path d="M209.182 96.5454H193.091V112.636H209.182V96.5454Z" fill="#BF1422"></path><path d="M241.364 96.5454H225.273V112.636H241.364V96.5454Z" fill="#BF1422"></path><path d="M144.818 112.636H128.727V128.727H144.818V112.636Z" fill="#BF1422"></path><path d="M193.091 112.636H177V128.727H193.091V112.636Z" fill="#BF1422"></path><path d="M209.182 112.636H193.091V128.727H209.182V112.636Z" fill="#BF1422"></path><path d="M225.273 112.636H209.182V128.727H225.273V112.636Z" fill="#BF1422"></path><path d="M241.364 112.636H225.273V128.727H241.364V112.636Z" fill="#BF1422"></path><path d="M16.0909 128.727H0V144.818H16.0909V128.727Z" fill="#BF1422"></path><path d="M48.2727 128.727H32.1818V144.818H48.2727V128.727Z" fill="#BF1422"></path><path d="M64.3636 128.727H48.2727V144.818H64.3636V128.727Z" fill="#BF1422"></path><path d="M96.5454 128.727H80.4545V144.818H96.5454V128.727Z" fill="#BF1422"></path><path d="M112.636 128.727H96.5455V144.818H112.636V128.727Z" fill="#BF1422"></path><path d="M128.727 128.727H112.636V144.818H128.727V128.727Z" fill="#BF1422"></path><path d="M160.909 128.727H144.818V144.818H160.909V128.727Z" fill="#BF1422"></path><path d="M193.091 128.727H177V144.818H193.091V128.727Z" fill="#BF1422"></path><path d="M225.273 128.727H209.182V144.818H225.273V128.727Z" fill="#BF1422"></path><path d="M241.364 128.727H225.273V144.818H241.364V128.727Z" fill="#BF1422"></path><path d="M32.1818 144.818H16.0909V160.909H32.1818V144.818Z" fill="#BF1422"></path><path d="M64.3636 144.818H48.2727V160.909H64.3636V144.818Z" fill="#BF1422"></path><path d="M80.4546 144.818H64.3636V160.909H80.4546V144.818Z" fill="#BF1422"></path><path d="M96.5454 144.818H80.4545V160.909H96.5454V144.818Z" fill="#BF1422"></path><path d="M144.818 144.818H128.727V160.909H144.818V144.818Z" fill="#BF1422"></path><path d="M160.909 144.818H144.818V160.909H160.909V144.818Z" fill="#BF1422"></path><path d="M193.091 144.818H177V160.909H193.091V144.818Z" fill="#BF1422"></path><path d="M209.182 144.818H193.091V160.909H209.182V144.818Z" fill="#BF1422"></path><path d="M32.1818 160.909H16.0909V177H32.1818V160.909Z" fill="#BF1422"></path><path d="M48.2727 160.909H32.1818V177H48.2727V160.909Z" fill="#BF1422"></path><path d="M96.5454 160.909H80.4545V177H96.5454V160.909Z" fill="#BF1422"></path><path d="M112.636 160.909H96.5455V177H112.636V160.909Z" fill="#BF1422"></path><path d="M128.727 160.909H112.636V177H128.727V160.909Z" fill="#BF1422"></path><path d="M160.909 160.909H144.818V177H160.909V160.909Z" fill="#BF1422"></path><path d="M241.364 160.909H225.273V177H241.364V160.909Z" fill="#BF1422"></path><path d="M16.0909 177H0V193.091H16.0909V177Z" fill="#BF1422"></path><path d="M32.1818 177H16.0909V193.091H32.1818V177Z" fill="#BF1422"></path><path d="M80.4546 177H64.3636V193.091H80.4546V177Z" fill="#BF1422"></path><path d="M144.818 177H128.727V193.091H144.818V177Z" fill="#BF1422"></path><path d="M177 177H160.909V193.091H177V177Z" fill="#BF1422"></path><path d="M209.182 177H193.091V193.091H209.182V177Z" fill="#BF1422"></path><path d="M225.273 177H209.182V193.091H225.273V177Z" fill="#BF1422"></path><path d="M241.364 177H225.273V193.091H241.364V177Z" fill="#BF1422"></path><path d="M16.0909 193.091H0V209.182H16.0909V193.091Z" fill="#BF1422"></path><path d="M64.3636 193.091H48.2727V209.182H64.3636V193.091Z" fill="#BF1422"></path><path d="M80.4546 193.091H64.3636V209.182H80.4546V193.091Z" fill="#BF1422"></path><path d="M112.636 193.091H96.5455V209.182H112.636V193.091Z" fill="#BF1422"></path><path d="M144.818 193.091H128.727V209.182H144.818V193.091Z" fill="#BF1422"></path><path d="M160.909 193.091H144.818V209.182H160.909V193.091Z" fill="#BF1422"></path><path d="M177 193.091H160.909V209.182H177V193.091Z" fill="#BF1422"></path><path d="M193.091 193.091H177V209.182H193.091V193.091Z" fill="#BF1422"></path><path d="M209.182 193.091H193.091V209.182H209.182V193.091Z" fill="#BF1422"></path><path d="M16.0909 209.182H0V225.273H16.0909V209.182Z" fill="#BF1422"></path><path d="M32.1818 209.182H16.0909V225.273H32.1818V209.182Z" fill="#BF1422"></path><path d="M48.2727 209.182H32.1818V225.273H48.2727V209.182Z" fill="#BF1422"></path><path d="M64.3636 209.182H48.2727V225.273H64.3636V209.182Z" fill="#BF1422"></path><path d="M80.4546 209.182H64.3636V225.273H80.4546V209.182Z" fill="#BF1422"></path><path d="M96.5454 209.182H80.4545V225.273H96.5454V209.182Z" fill="#BF1422"></path><path d="M144.818 209.182H128.727V225.273H144.818V209.182Z" fill="#BF1422"></path><path d="M160.909 209.182H144.818V225.273H160.909V209.182Z" fill="#BF1422"></path><path d="M193.091 209.182H177V225.273H193.091V209.182Z" fill="#BF1422"></path><path d="M225.273 209.182H209.182V225.273H225.273V209.182Z" fill="#BF1422"></path><path d="M16.0909 225.273H0V241.364H16.0909V225.273Z" fill="#BF1422"></path><path d="M64.3636 225.273H48.2727V241.364H64.3636V225.273Z" fill="#BF1422"></path><path d="M80.4546 225.273H64.3636V241.364H80.4546V225.273Z" fill="#BF1422"></path><path d="M112.636 225.273H96.5455V241.364H112.636V225.273Z" fill="#BF1422"></path><path d="M128.727 225.273H112.636V241.364H128.727V225.273Z" fill="#BF1422"></path><path d="M241.364 225.273H225.273V241.364H241.364V225.273Z" fill="#BF1422"></path><path d="M16.0909 241.364H0V257.454H16.0909V241.364Z" fill="#BF1422"></path><path d="M96.5454 241.364H80.4545V257.454H96.5454V241.364Z" fill="#BF1422"></path><path d="M144.818 241.364H128.727V257.454H144.818V241.364Z" fill="#BF1422"></path><path d="M160.909 241.364H144.818V257.454H160.909V241.364Z" fill="#BF1422"></path><path d="M177 241.364H160.909V257.454H177V241.364Z" fill="#BF1422"></path><path d="M225.273 241.364H209.182V257.454H225.273V241.364Z" fill="#BF1422"></path><path d="M48.2727 257.455H32.1818V273.545H48.2727V257.455Z" fill="#BF1422"></path><path d="M112.636 257.455H96.5455V273.545H112.636V257.455Z" fill="#BF1422"></path><path d="M128.727 257.455H112.636V273.545H128.727V257.455Z" fill="#BF1422"></path><path d="M144.818 257.455H128.727V273.545H144.818V257.455Z" fill="#BF1422"></path><path d="M160.909 257.455H144.818V273.545H160.909V257.455Z" fill="#BF1422"></path><path d="M193.091 257.455H177V273.545H193.091V257.455Z" fill="#BF1422"></path><path d="M209.182 257.455H193.091V273.545H209.182V257.455Z" fill="#BF1422"></path><path d="M64.3636 273.545H48.2727V289.636H64.3636V273.545Z" fill="#BF1422"></path><path d="M80.4546 273.545H64.3636V289.636H80.4546V273.545Z" fill="#BF1422"></path><path d="M144.818 273.545H128.727V289.636H144.818V273.545Z" fill="#BF1422"></path><path d="M160.909 273.545H144.818V289.636H160.909V273.545Z" fill="#BF1422"></path><path d="M177 273.545H160.909V289.636H177V273.545Z" fill="#BF1422"></path><path d="M193.091 273.545H177V289.636H193.091V273.545Z" fill="#BF1422"></path><path d="M209.182 273.545H193.091V289.636H209.182V273.545Z" fill="#BF1422"></path><path d="M225.273 273.545H209.182V289.636H225.273V273.545Z" fill="#BF1422"></path><path d="M16.0909 289.636H0V305.727H16.0909V289.636Z" fill="#BF1422"></path><path d="M96.5454 289.636H80.4545V305.727H96.5454V289.636Z" fill="#BF1422"></path><path d="M112.636 289.636H96.5455V305.727H112.636V289.636Z" fill="#BF1422"></path><path d="M128.727 289.636H112.636V305.727H128.727V289.636Z" fill="#BF1422"></path><path d="M144.818 289.636H128.727V305.727H144.818V289.636Z" fill="#BF1422"></path><path d="M193.091 289.636H177V305.727H193.091V289.636Z" fill="#BF1422"></path><path d="M209.182 289.636H193.091V305.727H209.182V289.636Z" fill="#BF1422"></path><path d="M48.2727 305.727H32.1818V321.818H48.2727V305.727Z" fill="#BF1422"></path><path d="M80.4546 305.727H64.3636V321.818H80.4546V305.727Z" fill="#BF1422"></path><path d="M96.5454 305.727H80.4545V321.818H96.5454V305.727Z" fill="#BF1422"></path><path d="M160.909 305.727H144.818V321.818H160.909V305.727Z" fill="#BF1422"></path><path d="M209.182 305.727H193.091V321.818H209.182V305.727Z" fill="#BF1422"></path><path d="M32.1818 321.818H16.0909V337.909H32.1818V321.818Z" fill="#BF1422"></path><path d="M80.4546 321.818H64.3636V337.909H80.4546V321.818Z" fill="#BF1422"></path><path d="M96.5454 321.818H80.4545V337.909H96.5454V321.818Z" fill="#BF1422"></path><path d="M112.636 321.818H96.5455V337.909H112.636V321.818Z" fill="#BF1422"></path><path d="M144.818 321.818H128.727V337.909H144.818V321.818Z" fill="#BF1422"></path><path d="M160.909 321.818H144.818V337.909H160.909V321.818Z" fill="#BF1422"></path><path d="M177 321.818H160.909V337.909H177V321.818Z" fill="#BF1422"></path><path d="M193.091 321.818H177V337.909H193.091V321.818Z" fill="#BF1422"></path><path d="M225.273 321.818H209.182V337.909H225.273V321.818Z" fill="#BF1422"></path><path d="M144.818 337.909H128.727V354H144.818V337.909Z" fill="#BF1422"></path><path d="M160.909 337.909H144.818V354H160.909V337.909Z" fill="#BF1422"></path><path d="M193.091 337.909H177V354H193.091V337.909Z" fill="#BF1422"></path><path d="M225.273 337.909H209.182V354H225.273V337.909Z" fill="#BF1422"></path><path d="M241.364 337.909H225.273V354H241.364V337.909Z" fill="#BF1422"></path><path d="M144.818 354H128.727V370.091H144.818V354Z" fill="#BF1422"></path><path d="M160.909 354H144.818V370.091H160.909V354Z" fill="#BF1422"></path><path d="M193.091 354H177V370.091H193.091V354Z" fill="#BF1422"></path><path d="M225.273 354H209.182V370.091H225.273V354Z" fill="#BF1422"></path><path d="M144.818 370.091H128.727V386.182H144.818V370.091Z" fill="#BF1422"></path><path d="M160.909 370.091H144.818V386.182H160.909V370.091Z" fill="#BF1422"></path><path d="M177 370.091H160.909V386.182H177V370.091Z" fill="#BF1422"></path><path d="M209.182 370.091H193.091V386.182H209.182V370.091Z" fill="#BF1422"></path><path d="M177 386.182H160.909V402.273H177V386.182Z" fill="#BF1422"></path><path d="M193.091 386.182H177V402.273H193.091V386.182Z" fill="#BF1422"></path><path d="M209.182 386.182H193.091V402.273H209.182V386.182Z" fill="#BF1422"></path><path d="M241.364 386.182H225.273V402.273H241.364V386.182Z" fill="#BF1422"></path><path d="M144.818 402.273H128.727V418.364H144.818V402.273Z" fill="#BF1422"></path><path d="M241.364 402.273H225.273V418.364H241.364V402.273Z" fill="#BF1422"></path><path d="M144.818 418.364H128.727V434.454H144.818V418.364Z" fill="#BF1422"></path><path d="M177 418.364H160.909V434.454H177V418.364Z" fill="#BF1422"></path><path d="M241.364 418.364H225.273V434.454H241.364V418.364Z" fill="#BF1422"></path><path d="M160.909 434.455H144.818V450.545H160.909V434.455Z" fill="#BF1422"></path><path d="M193.091 434.455H177V450.545H193.091V434.455Z" fill="#BF1422"></path><path d="M209.182 434.455H193.091V450.545H209.182V434.455Z" fill="#BF1422"></path><path d="M144.818 450.545H128.727V466.636H144.818V450.545Z" fill="#BF1422"></path><path d="M160.909 450.545H144.818V466.636H160.909V450.545Z" fill="#BF1422"></path><path d="M177 450.545H160.909V466.636H177V450.545Z" fill="#BF1422"></path><path d="M193.091 450.545H177V466.636H193.091V450.545Z" fill="#BF1422"></path><path d="M209.182 450.545H193.091V466.636H209.182V450.545Z" fill="#BF1422"></path><path d="M95.7409 0H16.8955H0V16.8955V95.7409V112.636H16.8955H95.7409H112.636V95.7409V16.8955V0H95.7409ZM95.7409 95.7409H16.8955V16.8955H95.7409V95.7409Z" fill="#BF1422"></path><path d="M95.7409 354H16.8955H0V370.895V449.741V466.636H16.8955H95.7409H112.636V449.741V370.895V354H95.7409ZM95.7409 449.741H16.8955V370.895H56.3182H95.7409V449.741Z" fill="#BF1422"></path><path d="M80.4545 32.1819H32.1818V80.4546H80.4545V32.1819Z" fill="#BF1422"></path><path d="M80.4545 386.182H32.1818V434.455H80.4545V386.182Z" fill="#BF1422"></path></svg>